<svg width="39" height="24" viewBox="0 0 39 24" fill="none" xmlns="http://www.w3.org/2000/svg">
<path d="M10.9907 8.48857C10.9907 8.96954 11.0426 9.35952 11.1334 9.64551C11.2371 9.93149 11.3669 10.2435 11.5484 10.5815C11.6133 10.6855 11.6392 10.7894 11.6392 10.8804C11.6392 11.0104 11.5614 11.1404 11.3928 11.2704L10.5756 11.8164C10.4589 11.8944 10.3422 11.9334 10.2384 11.9334C10.1087 11.9334 9.97898 11.8684 9.84927 11.7514C9.66768 11.5564 9.51203 11.3484 9.38232 11.1404C9.25261 10.9194 9.1229 10.6725 8.98023 10.3735C7.9685 11.5694 6.69736 12.1674 5.1668 12.1674C4.07725 12.1674 3.20821 11.8554 2.57263 11.2314C1.93706 10.6075 1.61279 9.7755 1.61279 8.73555C1.61279 7.63061 2.00192 6.73366 2.79314 6.05769C3.58436 5.38173 4.635 5.04374 5.97099 5.04374C6.412 5.04374 6.86598 5.08274 7.3459 5.14774C7.82582 5.21273 8.31871 5.31673 8.83755 5.43372V4.48477C8.83755 3.49682 8.63001 2.80786 8.22792 2.40488C7.81285 2.0019 7.11242 1.80691 6.11367 1.80691C5.65969 1.80691 5.19274 1.8589 4.71282 1.9759C4.2329 2.09289 3.76595 2.23589 3.31197 2.41788C3.10444 2.50887 2.94879 2.56087 2.85799 2.58687C2.7672 2.61287 2.70234 2.62587 2.65046 2.62587C2.46887 2.62587 2.37807 2.49587 2.37807 2.22289V1.58592C2.37807 1.37793 2.40401 1.22194 2.46887 1.13094C2.53372 1.03995 2.65046 0.948952 2.83205 0.857956C3.28603 0.623968 3.8308 0.428978 4.46638 0.272986C5.10195 0.103995 5.77643 0.0259987 6.48983 0.0259987C8.03335 0.0259987 9.16182 0.376981 9.88818 1.07894C10.6016 1.78091 10.9648 2.84685 10.9648 4.27678V8.48857H10.9907ZM5.72455 10.4645C6.15258 10.4645 6.59359 10.3865 7.06054 10.2305C7.52749 10.0745 7.94256 9.7885 8.29277 9.39852C8.5003 9.15153 8.65595 8.87855 8.73378 8.56656C8.8116 8.25458 8.86349 7.8776 8.86349 7.43562V6.88965C8.48733 6.79865 8.08524 6.72066 7.67017 6.66866C7.2551 6.61666 6.85301 6.59066 6.45091 6.59066C5.58187 6.59066 4.9463 6.75965 4.51826 7.11064C4.09022 7.46162 3.88269 7.95559 3.88269 8.60556C3.88269 9.21653 4.03834 9.67151 4.36261 9.98349C4.67391 10.3085 5.12789 10.4645 5.72455 10.4645ZM16.1401 11.8684C15.9066 11.8684 15.751 11.8294 15.6472 11.7384C15.5435 11.6604 15.4527 11.4784 15.3748 11.2314L12.3267 1.18294C12.2489 0.922953 12.21 0.753962 12.21 0.662966C12.21 0.454977 12.3137 0.337983 12.5213 0.337983H13.7924C14.0388 0.337983 14.2075 0.376981 14.2983 0.467976C14.402 0.545972 14.4799 0.727963 14.5577 0.97495L16.7368 9.58051L18.7602 0.97495C18.8251 0.714964 18.9029 0.545972 19.0067 0.467976C19.1104 0.38998 19.292 0.337983 19.5255 0.337983H20.5632C20.8096 0.337983 20.9782 0.376981 21.082 0.467976C21.1858 0.545972 21.2766 0.727963 21.3285 0.97495L23.3778 9.68451L25.6218 0.97495C25.6996 0.714964 25.7904 0.545972 25.8812 0.467976C25.985 0.38998 26.1536 0.337983 26.3871 0.337983H27.5934C27.8009 0.337983 27.9176 0.441977 27.9176 0.662966C27.9176 0.727963 27.9047 0.79296 27.8917 0.870956C27.8787 0.948952 27.8528 1.05295 27.8009 1.19594L24.6749 11.2444C24.5971 11.5044 24.5063 11.6734 24.4025 11.7514C24.2988 11.8294 24.1302 11.8814 23.9096 11.8814H22.7942C22.5477 11.8814 22.3791 11.8424 22.2753 11.7514C22.1716 11.6604 22.0808 11.4914 22.0289 11.2314L20.0184 2.84685L18.0209 11.2184C17.956 11.4784 17.8782 11.6474 17.7744 11.7384C17.6707 11.8294 17.4891 11.8684 17.2556 11.8684H16.1401ZM32.8076 12.2194C32.1332 12.2194 31.4587 12.1414 30.8101 11.9854C30.1616 11.8294 29.6557 11.6604 29.3185 11.4654C29.111 11.3484 28.9683 11.2184 28.9164 11.1014C28.8645 10.9844 28.8386 10.8544 28.8386 10.7375V10.0745C28.8386 9.8015 28.9423 9.67151 29.1369 9.67151C29.2147 9.67151 29.2925 9.68451 29.3704 9.7105C29.4482 9.7365 29.5649 9.7885 29.6946 9.8405C30.1356 10.0355 30.6156 10.1915 31.1214 10.2955C31.6403 10.3995 32.1461 10.4515 32.665 10.4515C33.4821 10.4515 34.1177 10.3085 34.5587 10.0225C34.9997 9.7365 35.2332 9.32052 35.2332 8.78755C35.2332 8.42357 35.1164 8.12459 34.883 7.8776C34.6495 7.63061 34.2085 7.40962 33.5729 7.20163L31.6921 6.61666C30.7453 6.31768 30.0449 5.8757 29.6168 5.29073C29.1888 4.71876 28.9683 4.08179 28.9683 3.40583C28.9683 2.85985 29.085 2.37888 29.3185 1.9629C29.552 1.54692 29.8633 1.18294 30.2524 0.896954C30.6415 0.597969 31.0825 0.376981 31.6014 0.220989C32.1202 0.0649967 32.665 0 33.2357 0C33.521 0 33.8194 0.0129993 34.1047 0.0519973C34.4031 0.0909954 34.6754 0.142993 34.9478 0.19499C35.2072 0.259987 35.4537 0.324983 35.6872 0.402979C35.9206 0.480975 36.1022 0.558971 36.2319 0.636967C36.4135 0.740962 36.5432 0.844957 36.6211 0.961951C36.6989 1.06595 36.7378 1.20894 36.7378 1.39093V2.0019C36.7378 2.27488 36.634 2.41788 36.4395 2.41788C36.3357 2.41788 36.1671 2.36588 35.9466 2.26188C35.2072 1.9239 34.3771 1.75491 33.4562 1.75491C32.7168 1.75491 32.1332 1.8719 31.7311 2.11889C31.329 2.36588 31.1214 2.74286 31.1214 3.27583C31.1214 3.63981 31.2511 3.9518 31.5106 4.19879C31.77 4.44577 32.2499 4.69276 32.9373 4.91375L34.7792 5.49872C35.7131 5.7977 36.3876 6.21368 36.7897 6.74666C37.1918 7.27963 37.3863 7.8906 37.3863 8.56656C37.3863 9.12553 37.2696 9.63251 37.0491 10.0745C36.8156 10.5165 36.5043 10.9064 36.1022 11.2184C35.7001 11.5434 35.2202 11.7774 34.6625 11.9464C34.0788 12.1284 33.4692 12.2194 32.8076 12.2194Z" fill="#252F3E"/>
<path fill-rule="evenodd" clip-rule="evenodd" d="M35.2589 18.5367C30.9915 21.6955 24.7914 23.3724 19.4604 23.3724C11.9892 23.3724 5.25734 20.6036 0.172774 16.0018C-0.229322 15.6378 0.133861 15.1438 0.613782 15.4298C6.11341 18.6277 12.8972 20.5646 19.9144 20.5646C24.6487 20.5646 29.85 19.5766 34.6363 17.5487C35.3497 17.2237 35.9593 18.0167 35.2589 18.5367Z" fill="#FF9900"/>
<path fill-rule="evenodd" clip-rule="evenodd" d="M37.0364 16.5091C36.4916 15.8072 33.4305 16.1712 32.0426 16.3401C31.6276 16.3921 31.5627 16.0282 31.9389 15.7552C34.3774 14.0393 38.3854 14.5332 38.8523 15.1052C39.3193 15.6902 38.7226 19.707 36.4397 21.6309C36.0895 21.9298 35.7523 21.7739 35.9079 21.3839C36.4268 20.0969 37.5812 17.1981 37.0364 16.5091Z" fill="#FF9900"/>
</svg>
