<svg width="40" height="32" viewBox="0 0 40 32" fill="none" xmlns="http://www.w3.org/2000/svg">
<rect width="40" height="32" fill="white"/>
<path d="M18.1904 30.2911C23.2421 29.3534 27.4145 28.5775 27.4624 28.5668L27.5496 28.5474L22.7802 22.5868C20.1571 19.3085 18.0109 16.6135 18.0109 16.5979C18.0109 16.5685 22.9357 2.31922 22.9633 2.26853C22.9726 2.25158 26.324 8.33113 31.0874 17.0058C35.547 25.1271 39.2236 31.8232 39.2578 31.8859L39.32 32L24.1627 31.9979L9.00548 31.9959L18.1904 30.2911ZM0 28.4734C0 28.465 2.24727 24.3661 4.99394 19.3647L9.98788 10.2712L15.8077 5.1395C19.0087 2.31706 21.6362 0.00433378 21.6467 0.000115936C21.6573 -0.00410107 21.6152 0.107252 21.5532 0.24757C21.4912 0.387887 18.6474 6.79685 15.2336 14.4897L9.02681 28.4767L4.5134 28.4827C2.03103 28.486 0 28.4818 0 28.4734Z" fill="#0089D6"/>
</svg>
