<svg width="16" height="16" viewBox="0 0 16 16" fill="none" xmlns="http://www.w3.org/2000/svg">
<g clip-path="url(#clip0)">
<path fill-rule="evenodd" clip-rule="evenodd" d="M12.1777 14.48C12.26 14.5629 12.3252 14.6612 12.3695 14.7692C12.4138 14.8773 12.4364 14.993 12.436 15.1098C12.4356 15.2266 12.4122 15.3422 12.3671 15.4499C12.322 15.5577 12.2561 15.6555 12.1733 15.7378C12.0904 15.8201 11.9921 15.8852 11.8841 15.9296C11.776 15.9739 11.6603 15.9965 11.5435 15.996C11.4267 15.9956 11.3111 15.9722 11.2033 15.9271C11.0956 15.8821 10.9978 15.8162 10.9155 15.7333L3.80438 8.62222C3.63882 8.45568 3.5459 8.23039 3.5459 7.99556C3.5459 7.76072 3.63882 7.53543 3.80438 7.36889L10.9155 0.257778C10.9978 0.1749 11.0956 0.109042 11.2033 0.0639646C11.3111 0.0188877 11.4267 -0.00452559 11.5435 -0.00493829C11.6603 -0.005351 11.776 0.0172449 11.8841 0.0615593C11.9921 0.105874 12.0904 0.171039 12.1733 0.253334C12.2561 0.335629 12.322 0.433442 12.3671 0.541189C12.4122 0.648936 12.4356 0.764507 12.436 0.881302C12.4364 0.998098 12.4138 1.11383 12.3695 1.22189C12.3252 1.32996 12.26 1.42823 12.1777 1.51111L5.69771 7.99111L12.1777 14.48Z" fill="black"/>
</g>
<defs>
<clipPath id="clip0">
<rect width="16" height="16" fill="white"/>
</clipPath>
</defs>
</svg>
