<svg width="32" height="32" viewBox="0 0 32 32" fill="none" xmlns="http://www.w3.org/2000/svg">
<path d="M24.6666 11.1332V11.5332C24.5999 14.3332 22.9333 17.0665 19.5333 19.7998L19.3333 19.9998H12.6666L12.3999 19.7998C8.99994 17.0665 7.33327 14.3332 7.2666 11.5332V11.1332C7.4666 6.4665 11.2666 2.6665 15.9999 2.6665C20.7333 2.6665 24.5999 6.4665 24.6666 11.1332Z" fill="#99DAFF"/>
<path d="M27.3336 11.3333C27.3336 5.06667 22.2669 0 16.0003 0C9.73366 0 4.66699 5.06667 4.66699 11.3333C4.66699 15.2667 6.93365 18.9333 11.3336 22.3333V29.3333C11.3336 30.0667 11.9336 30.6667 12.6669 30.6667H15.3336V32H16.6669V30.6667H19.3336C20.0669 30.6667 20.6669 30.0667 20.6669 29.3333V22.3333C25.0669 18.9333 27.3336 15.2667 27.3336 11.3333ZM19.3336 29.3333H12.6669V26.6667H19.3336V29.3333ZM19.3336 25.3333H12.6669V22.6667H19.3336V25.3333ZM17.3336 21.3333H14.6669V11.3333C14.6669 10.6 15.2669 10 16.0003 10C16.7336 10 17.3336 10.6 17.3336 11.3333V21.3333ZM19.8003 21.3333H18.6669V11.3333C18.6669 9.86667 17.4669 8.66667 16.0003 8.66667C14.5336 8.66667 13.3336 9.86667 13.3336 11.3333V21.3333H12.2003C8.06699 18.2 6.00032 14.8 6.00032 11.3333C6.00032 5.8 10.4669 1.33333 16.0003 1.33333C21.5336 1.33333 26.0003 5.8 26.0003 11.3333C26.0003 14.8 23.9336 18.2 19.8003 21.3333Z" fill="#222222"/>
</svg>
