<svg width="40" height="40" viewBox="0 0 40 40" fill="none" xmlns="http://www.w3.org/2000/svg">
<rect width="40" height="40" fill="white"/>
<g clip-path="url(#clip0)">
<rect width="36.6667" height="36.6667" transform="translate(1.66675 1.66678)" fill="white"/>
<path d="M22.7396 6.25L12.6059 15.0598L3.9585 30.6203H11.7554L22.7396 6.25ZM24.0877 8.31123L19.7629 20.5315L28.0552 30.9763L11.9681 33.7473H38.3335L24.0877 8.31123Z" fill="#0072C6"/>
</g>
<g clip-path="url(#clip1)">
<rect width="36.6667" height="30" transform="translate(1.66675 5)" fill="white"/>
<path d="M24.9327 13.2613H26.0516L29.2392 10.0205L29.3959 8.64545C23.4649 3.3233 14.4108 3.89677 9.17601 9.92677C7.72053 11.6019 6.66466 13.5941 6.08984 15.7505C6.44488 15.6021 6.83833 15.5786 7.20873 15.6818L13.5824 14.613C13.5824 14.613 13.9067 14.0676 14.0742 14.102C16.9099 10.9362 21.6821 10.5674 24.9557 13.2613H24.9327Z" fill="#EA4335"/>
<path d="M33.7792 15.7507C33.0461 13.0084 31.543 10.5426 29.4512 8.65659L24.9787 13.2037C26.8676 14.7725 27.9435 17.1367 27.8973 19.6165V20.4243C30.0967 20.4243 31.878 22.2369 31.878 24.4714C31.878 26.7074 30.0952 28.5185 27.8973 28.5185H19.9345L19.1399 29.3373V34.1922L19.9345 35H27.8973C32.462 35.036 36.5119 32.028 37.8674 27.5965C39.22 23.1635 37.5601 18.3508 33.7792 15.7507Z" fill="#4285F4"/>
<path d="M11.9612 34.9546H19.9241V28.4746H11.9612C11.3941 28.4746 10.8331 28.3511 10.3167 28.1105L9.19783 28.4621L5.98871 31.7029L5.70898 32.8404C7.50874 34.2218 9.70502 34.964 11.9612 34.9546Z" fill="#34A853"/>
<path d="M11.9609 13.9319C7.53759 13.9585 3.61994 16.8383 2.20904 21.0995C0.798132 25.3606 2.20443 30.064 5.71018 32.8048L10.3287 28.1092C8.3245 27.1889 7.43462 24.7919 8.33987 22.7542C9.24513 20.7166 11.6028 19.8119 13.6069 20.7323C14.4892 21.1385 15.1961 21.8573 15.5957 22.7542L20.2142 18.0587C18.2485 15.4476 15.1946 13.921 11.9609 13.9319Z" fill="#FBBC05"/>
</g>
<defs>
<clipPath id="clip0">
<rect width="36.6667" height="36.6667" fill="white" transform="translate(1.66675 1.66678)"/>
</clipPath>
<clipPath id="clip1">
<rect width="36.6667" height="30" fill="white" transform="translate(1.66675 5)"/>
</clipPath>
</defs>
</svg>
