<svg width="35" height="34" viewBox="0 0 35 34" fill="none" xmlns="http://www.w3.org/2000/svg">
<path d="M3.97227 23.3452C4.67637 23.3452 5.2473 22.7689 5.2473 22.0579C5.2473 21.3469 4.67637 20.7706 3.97227 20.7706C3.26818 20.7706 2.69727 21.3469 2.69727 22.0579C2.69727 22.7689 3.26818 23.3452 3.97227 23.3452Z" fill="#00A0FF"/>
<path d="M22.5032 25.0617C23.9586 25.0617 25.1382 23.8705 25.1382 22.4012C25.1382 20.9319 23.9586 19.7407 22.5032 19.7407C21.0478 19.7407 19.8682 20.9319 19.8682 22.4012C19.8682 23.8705 21.0478 25.0617 22.5032 25.0617Z" fill="#00A0FF"/>
<path d="M3.97184 6.0076C5.33326 6.0076 6.43684 4.93172 6.43684 3.60456C6.43684 2.27741 5.33326 1.20154 3.97184 1.20154C2.61042 1.20154 1.50684 2.27741 1.50684 3.60456C1.50684 4.93172 2.61042 6.0076 3.97184 6.0076Z" fill="#00A0FF"/>
<path d="M13.0679 6.86598C14.852 6.86598 16.2979 5.40587 16.2979 3.60475C16.2979 1.80362 14.852 0.343506 13.0679 0.343506C11.2838 0.343506 9.83789 1.80362 9.83789 3.60475C9.83789 5.40587 11.2838 6.86598 13.0679 6.86598Z" fill="#00A0FF"/>
<path d="M22.2489 5.32085C23.1876 5.32085 23.9489 4.55235 23.9489 3.60439C23.9489 2.65642 23.1876 1.88794 22.2489 1.88794C21.3101 1.88794 20.5488 2.65642 20.5488 3.60439C20.5488 4.55235 21.3101 5.32085 22.2489 5.32085Z" fill="#00A0FF"/>
<path d="M31.4294 7.20906C33.4009 7.20906 34.9994 5.59526 34.9994 3.60454C34.9994 1.61381 33.4009 0 31.4294 0C29.4579 0 27.8594 1.61381 27.8594 3.60454C27.8594 5.59526 29.4579 7.20906 31.4294 7.20906Z" fill="#00A0FF"/>
<path d="M3.97207 15.7921C5.61493 15.7921 6.94708 14.4473 6.94708 12.7884C6.94708 11.1294 5.61493 9.78455 3.97207 9.78455C2.3292 9.78455 0.99707 11.1294 0.99707 12.7884C0.99707 14.4473 2.3292 15.7921 3.97207 15.7921Z" fill="#00A0FF"/>
<path d="M13.1525 15.2772C14.5139 15.2772 15.6175 14.1629 15.6175 12.7883C15.6175 11.4138 14.5139 10.2995 13.1525 10.2995C11.7911 10.2995 10.6875 11.4138 10.6875 12.7883C10.6875 14.1629 11.7911 15.2772 13.1525 15.2772Z" fill="#00A0FF"/>
<path d="M22.3336 14.0756C23.0377 14.0756 23.6086 13.4993 23.6086 12.7883C23.6086 12.0773 23.0377 11.501 22.3336 11.501C21.6295 11.501 21.0586 12.0773 21.0586 12.7883C21.0586 13.4993 21.6295 14.0756 22.3336 14.0756Z" fill="#00A0FF"/>
<path d="M31.4304 14.4179C32.2752 14.4179 32.9604 13.6878 32.9604 12.7873C32.9604 11.8867 32.2752 11.1567 31.4304 11.1567C30.5856 11.1567 29.9004 11.8867 29.9004 12.7873C29.9004 13.6878 30.5856 14.4179 31.4304 14.4179Z" fill="#00A0FF"/>
<path d="M13.068 23.5169C13.8193 23.5169 14.428 22.9021 14.428 22.1437C14.428 21.3853 13.8193 20.7706 13.068 20.7706C12.3167 20.7706 11.708 21.3853 11.708 22.1437C11.708 22.9021 12.3167 23.5169 13.068 23.5169Z" fill="#00A0FF"/>
<path d="M31.5141 25.0616C33.1569 25.0616 34.4891 23.7168 34.4891 22.0578C34.4891 20.3989 33.1569 19.0541 31.5141 19.0541C29.8712 19.0541 28.5391 20.3989 28.5391 22.0578C28.5391 23.7168 29.8712 25.0616 31.5141 25.0616Z" fill="#00A0FF"/>
<path d="M3.9725 33.1297C4.9585 33.1297 5.7575 32.3228 5.7575 31.3274C5.7575 30.3321 4.9585 29.5251 3.9725 29.5251C2.9865 29.5251 2.1875 30.3321 2.1875 31.3274C2.1875 32.3228 2.9865 33.1297 3.9725 33.1297Z" fill="#00A0FF"/>
<path d="M13.0677 33.9877C14.5698 33.9877 15.7877 32.7965 15.7877 31.3271C15.7877 29.8578 14.5698 28.6667 13.0677 28.6667C11.5655 28.6667 10.3477 29.8578 10.3477 31.3271C10.3477 32.7965 11.5655 33.9877 13.0677 33.9877Z" fill="#00A0FF"/>
<path d="M22.3336 32.6148C23.0377 32.6148 23.6086 32.0384 23.6086 31.3274C23.6086 30.6164 23.0377 30.0401 22.3336 30.0401C21.6295 30.0401 21.0586 30.6164 21.0586 31.3274C21.0586 32.0384 21.6295 32.6148 22.3336 32.6148Z" fill="#00A0FF"/>
<path d="M31.4288 33.8163C32.743 33.8163 33.8088 32.702 33.8088 31.3275C33.8088 29.9529 32.743 28.8386 31.4288 28.8386C30.1142 28.8386 29.0488 29.9529 29.0488 31.3275C29.0488 32.702 30.1142 33.8163 31.4288 33.8163Z" fill="#00A0FF"/>
</svg>
